<?xml version="1.0" encoding="UTF-8" standalone="no"?>
<!-- Created with Inkscape (http://www.inkscape.org/) -->

<svg
   width="210mm"
   height="297mm"
   viewBox="0 0 210 297"
   version="1.1"
   id="svg5"
   inkscape:version="1.1.2 (b8e25be833, 2022-02-05)"
   sodipodi:docname="mine.svg"
   inkscape:export-filename="C:\Users\pavel\Desktop\programování\idle_game_js\textures\mine.png"
   inkscape:export-xdpi="96"
   inkscape:export-ydpi="96"
   xmlns:inkscape="http://www.inkscape.org/namespaces/inkscape"
   xmlns:sodipodi="http://sodipodi.sourceforge.net/DTD/sodipodi-0.dtd"
   xmlns:xlink="http://www.w3.org/1999/xlink"
   xmlns="http://www.w3.org/2000/svg"
   xmlns:svg="http://www.w3.org/2000/svg">
  <sodipodi:namedview
     id="namedview7"
     pagecolor="#505050"
     bordercolor="#ffffff"
     borderopacity="1"
     inkscape:pageshadow="0"
     inkscape:pageopacity="0"
     inkscape:pagecheckerboard="1"
     inkscape:document-units="mm"
     showgrid="false"
     inkscape:zoom="1.4142136"
     inkscape:cx="152.38151"
     inkscape:cy="578.41334"
     inkscape:window-width="1920"
     inkscape:window-height="1027"
     inkscape:window-x="-8"
     inkscape:window-y="-8"
     inkscape:window-maximized="1"
     inkscape:current-layer="layer1" />
  <defs
     id="defs2">
    <linearGradient
       inkscape:collect="always"
       id="linearGradient21975">
      <stop
         style="stop-color:#552200;stop-opacity:1;"
         offset="0"
         id="stop21971" />
      <stop
         style="stop-color:#552200;stop-opacity:0;"
         offset="1"
         id="stop21973" />
    </linearGradient>
    <linearGradient
       inkscape:collect="always"
       id="linearGradient12667">
      <stop
         style="stop-color:#ffffff;stop-opacity:1;"
         offset="0"
         id="stop12663" />
      <stop
         style="stop-color:#ffffff;stop-opacity:0;"
         offset="1"
         id="stop12665" />
    </linearGradient>
    <linearGradient
       inkscape:collect="always"
       id="linearGradient2207">
      <stop
         style="stop-color:#552200;stop-opacity:1;"
         offset="0"
         id="stop2203" />
      <stop
         style="stop-color:#552200;stop-opacity:0;"
         offset="1"
         id="stop2205" />
    </linearGradient>
    <radialGradient
       inkscape:collect="always"
       xlink:href="#linearGradient2207"
       id="radialGradient2291"
       cx="74.350563"
       cy="94.969452"
       fx="74.350563"
       fy="94.969452"
       r="17.638132"
       gradientTransform="matrix(-0.58206933,-0.78469439,0.88099312,-0.65350165,33.960311,215.37461)"
       gradientUnits="userSpaceOnUse" />
    <linearGradient
       inkscape:collect="always"
       xlink:href="#linearGradient12667"
       id="linearGradient14139"
       gradientUnits="userSpaceOnUse"
       x1="89.435493"
       y1="98.705711"
       x2="101.57505"
       y2="93.408447" />
    <radialGradient
       inkscape:collect="always"
       xlink:href="#linearGradient2207"
       id="radialGradient2291-5"
       cx="74.350563"
       cy="94.969452"
       fx="74.350563"
       fy="94.969452"
       r="17.638132"
       gradientTransform="matrix(-0.58206933,0.78469439,0.88099312,0.65350165,40.039892,-23.244486)"
       gradientUnits="userSpaceOnUse" />
    <linearGradient
       inkscape:collect="always"
       xlink:href="#linearGradient21975"
       id="linearGradient21977"
       x1="83.73671"
       y1="142.87727"
       x2="82.003304"
       y2="142.84219"
       gradientUnits="userSpaceOnUse" />
  </defs>
  <g
     inkscape:label="Vrstva 1"
     inkscape:groupmode="layer"
     id="layer1">
    <rect
       style="fill:#1a1a1a;fill-opacity:1;stroke:none;stroke-width:0.1;stroke-miterlimit:4;stroke-dasharray:none;stroke-opacity:1;paint-order:fill markers stroke"
       id="rect14143"
       width="84.049934"
       height="128.68663"
       x="35.489243"
       y="85.392693"
       ry="0.037335277" />
    <path
       style="fill:none;fill-opacity:1;stroke:#666666;stroke-width:0.178;stroke-miterlimit:4;stroke-dasharray:none;stroke-opacity:1;paint-order:fill markers stroke"
       id="path15887-1"
       sodipodi:type="arc"
       sodipodi:cx="77.328094"
       sodipodi:cy="131.40738"
       sodipodi:rx="0.89296871"
       sodipodi:ry="1.7859374"
       sodipodi:start="0"
       sodipodi:end="6.2824457"
       sodipodi:arc-type="arc"
       sodipodi:open="true"
       d="m 78.221063,131.40738 a 0.89296871,1.7859374 0 0 1 -0.892803,1.78594 0.89296871,1.7859374 0 0 1 -0.893134,-1.78528 0.89296871,1.7859374 0 0 1 0.892473,-1.7866 0.89296871,1.7859374 0 0 1 0.893464,1.78462" />
    <path
       style="fill:none;fill-opacity:1;stroke:#666666;stroke-width:0.178;stroke-miterlimit:4;stroke-dasharray:none;stroke-opacity:1;paint-order:fill markers stroke"
       id="path15887-9"
       sodipodi:type="arc"
       sodipodi:cx="77.337776"
       sodipodi:cy="134.55884"
       sodipodi:rx="0.89296871"
       sodipodi:ry="1.7859374"
       sodipodi:start="0"
       sodipodi:end="6.2824457"
       sodipodi:arc-type="arc"
       sodipodi:open="true"
       d="m 78.230745,134.55884 a 0.89296871,1.7859374 0 0 1 -0.892804,1.78594 0.89296871,1.7859374 0 0 1 -0.893133,-1.78528 0.89296871,1.7859374 0 0 1 0.892473,-1.7866 0.89296871,1.7859374 0 0 1 0.893464,1.78462" />
    <rect
       style="fill:#ececec;fill-opacity:1;stroke:#552200;stroke-width:0.378;stroke-miterlimit:4;stroke-dasharray:none;stroke-opacity:1;paint-order:fill markers stroke"
       id="rect16338"
       width="15.610416"
       height="5.9861979"
       x="69.471291"
       y="139.44676"
       ry="0.5665049" />
    <path
       style="fill:none;fill-opacity:1;stroke:#666666;stroke-width:0.178;stroke-miterlimit:4;stroke-dasharray:none;stroke-opacity:1;paint-order:fill markers stroke"
       id="path15887-10"
       sodipodi:type="arc"
       sodipodi:cx="77.357559"
       sodipodi:cy="137.81485"
       sodipodi:rx="0.89296871"
       sodipodi:ry="1.7859374"
       sodipodi:start="0"
       sodipodi:end="6.2824457"
       sodipodi:arc-type="arc"
       sodipodi:open="true"
       d="m 78.250528,137.81485 a 0.89296871,1.7859374 0 0 1 -0.892804,1.78594 0.89296871,1.7859374 0 0 1 -0.893133,-1.78528 0.89296871,1.7859374 0 0 1 0.892473,-1.7866 0.89296871,1.7859374 0 0 1 0.893464,1.78462" />
    <rect
       style="fill:#552200;stroke-width:0.266553;paint-order:fill markers stroke"
       id="rect864"
       width="6.0036898"
       height="128.62747"
       x="38.969307"
       y="83.82357"
       ry="0.64937204"
       transform="matrix(0.99911441,0.04207596,-0.04110481,0.99915484,0,0)" />
    <rect
       style="fill:#552200;stroke-width:0.264999;paint-order:fill markers stroke"
       id="rect864-2"
       width="6.0035667"
       height="127.13437"
       x="-116.53627"
       y="91.731117"
       ry="0.64183414"
       transform="matrix(-0.99913486,0.04158758,0.04158762,0.99913486,0,0)" />
    <rect
       style="fill:#803300;stroke-width:0.264999;paint-order:fill markers stroke"
       id="rect864-2-3"
       width="0"
       height="0.0019141826"
       x="-165.37872"
       y="234.40111"
       ry="0"
       transform="matrix(-0.99913486,0.04158758,0.04158758,0.99913486,0,0)" />
    <rect
       style="fill:#552200;stroke-width:0.264999;paint-order:fill markers stroke"
       id="rect1105"
       width="85.111824"
       height="7.6625881"
       x="35.489243"
       y="85.3927"
       ry="0" />
    <rect
       style="fill:#552200;stroke-width:0.264999;paint-order:fill markers stroke"
       id="rect1333"
       width="53.678955"
       height="8.2990484"
       x="49.264565"
       y="91.112961"
       ry="4.1495242"
       inkscape:export-filename="C:\Users\pavel\Desktop\programování\idle_game_js\textures\mine.png"
       inkscape:export-xdpi="96"
       inkscape:export-ydpi="96" />
    <rect
       style="fill:url(#linearGradient14139);stroke-width:0.264999;paint-order:fill markers stroke;fill-opacity:1"
       id="rect1379"
       width="46.836647"
       height="6.0035634"
       x="52.796074"
       y="92.702141"
       ry="3.0017817" />
    <path
       style="fill:#552200;stroke:none;stroke-width:0.264583px;stroke-linecap:butt;stroke-linejoin:miter;stroke-opacity:1;fill-opacity:1"
       d="m 52.796074,97.160671 c -0.189775,0.08653 0.780307,-0.132431 0.618017,-0.132431 -0.272976,0 -1.098603,0 -0.176578,0 0.08871,0 0.794591,-2.44e-4 0.794591,-0.04414 0,-0.05886 -0.117718,0 -0.176575,0 -0.08829,0 -0.176577,0 -0.264863,0 -0.426726,0 -0.853448,0 -1.280174,0 -0.04414,0 -0.176575,0 -0.132432,0 0.336677,0 -0.462293,0.0033 0.485585,-0.04415 0.02111,-0.0011 0.546161,0.07185 0.662157,-0.04414"
       id="path1457" />
    <path
       style="fill:#552200;stroke:none;stroke-width:0.264583px;stroke-linecap:butt;stroke-linejoin:miter;stroke-opacity:1;fill-opacity:1"
       d="m 52.252961,95.204025 c 0.326229,0.116856 0.672489,0.124857 1.014471,0.124857 0.03642,0 0.07283,0 0.109249,0 0.0052,0 0.01561,0.0052 0.01561,0 0,-0.0052 -0.0104,0 -0.01561,0 -0.07283,0 -0.145865,0.0054 -0.218501,0 -0.06824,-0.0051 -0.134916,-0.02336 -0.202893,-0.03122 -0.131678,-0.01519 -0.258598,-0.01561 -0.390181,-0.01561 -0.0574,0 0.02846,-0.06105 0.03122,-0.06243 0.0412,-0.02061 0.08033,-0.01786 0.124857,-0.03121 0.124296,-0.03729 0.246319,-0.06799 0.374573,-0.09364 0.0051,-0.0011 -0.01048,7.94e-4 -0.01561,0 -0.02617,-0.0044 -0.05262,-0.008 -0.07804,-0.01561 -0.292555,-0.117022 0.126733,0.03949 -0.156072,-0.03121 -0.0384,-0.0096 -0.05179,-0.04682 -0.09364,-0.04682"
       id="path1558" />
    <path
       style="fill:none;stroke:#552200;stroke-width:0.1;stroke-linecap:butt;stroke-linejoin:miter;stroke-opacity:1;stroke-miterlimit:4;stroke-dasharray:none"
       d="m 99.32372,93.629161 c -0.191294,0.05344 -0.290963,0.15738 -0.441439,0.264864 -0.05355,0.03825 -0.12182,0.05178 -0.176575,0.08829 -0.717772,0.478515 0.750445,0.268492 0.750445,0.309007 0,0.07566 -0.397293,0.07644 -0.397293,0.220721 0,0.04709 0.374595,-0.0454 0.397293,0 0.0079,0.01585 -0.12673,0.430035 -0.132431,0.441439 -0.0186,0.03722 -0.06967,0.05106 -0.08829,0.08829 -0.08749,0.174982 0.264655,0.143494 0.35315,0.132432 0.192048,-0.024 0.384088,-0.05033 0.57387,-0.08829 0.24332,-0.04866 0.24309,-0.05533 0.3973,-0.132432"
       id="path2345" />
    <text
       xml:space="preserve"
       style="font-style:normal;font-weight:normal;font-size:4.56402px;line-height:1.25;font-family:sans-serif;fill:#aa0000;fill-opacity:1;stroke:none;stroke-width:0.114101"
       x="65.922127"
       y="80.69471"
       id="text4021"
       transform="scale(0.83232811,1.2014493)"><tspan
         sodipodi:role="line"
         id="tspan4019"
         style="fill:#aa0000;stroke-width:0.114101"
         x="65.922127"
         y="80.69471">осторожно не входить</tspan></text>
    <path
       style="fill:none;fill-opacity:1;stroke:url(#radialGradient2291);stroke-width:0.264583px;stroke-linecap:butt;stroke-linejoin:miter;stroke-opacity:1"
       d="m 56.747841,94.579735 c 1.942734,0.539729 3.950038,0.811422 5.930743,1.186148 0.377021,0.07133 0.743374,0.199004 1.12372,0.249717 0.474422,0.06326 0.957241,0 1.435862,0 0.874006,0 1.74801,0 2.622013,0 1.492269,0 2.928025,0.04366 4.370022,-0.437002 0.566479,-0.188828 1.10212,-0.540853 1.685579,-0.686718 0.245602,-0.0614 0.500321,-0.0782 0.749146,-0.12486 0.481052,-0.0902 0.948071,-0.251169 1.435865,-0.312142 0.373967,-0.04675 0.752319,-0.06082 1.12372,-0.124859 0.614418,-0.105934 1.179049,-0.42314 1.810435,-0.374574 0.57232,0.04403 1.122373,0.211572 1.685581,0.312145 0.962925,0.17195 1.966026,0.284184 2.871727,0.686718 0.546425,0.242856 0.04036,1.409729 0.312144,1.560722 0.4674,0.259667 2.323357,0.485627 2.934158,0.374573 0.8704,-0.158255 1.806197,-0.633383 2.497153,-1.186148 0.149879,-0.119904 0.188352,-0.313209 0.312145,-0.437002 0.129167,-0.129169 -0.0051,0.197385 0.124857,-0.06243 0.0186,-0.03723 -0.02943,-0.09543 0,-0.12486 0.08646,-0.08646 1.718098,-0.06243 1.810438,-0.06243 -0.07356,-0.485095 0.114176,-0.529806 0.249717,-0.936428 0.01486,-0.04458 0.04451,-0.557531 0,-0.624289 -0.241313,-0.361968 -0.03003,-0.04623 -0.187287,-0.124857 -0.07897,-0.03948 -0.108319,-0.147803 -0.187286,-0.187287 -0.03723,-0.01861 -0.08537,0.01316 -0.124858,0 -0.41195,-0.137317 -0.667695,-0.124858 -1.12372,-0.124858"
       id="path1772"
       inkscape:transform-center-x="-12.374893"
       inkscape:transform-center-y="-0.31294143" />
    <path
       style="fill:#1a1a1a;fill-opacity:1;stroke:#552200;stroke-width:0.377953;stroke-miterlimit:4;stroke-dasharray:none;stroke-opacity:1;paint-order:fill markers stroke"
       id="path12513"
       sodipodi:type="arc"
       sodipodi:cx="89.391342"
       sodipodi:cy="-38.493458"
       sodipodi:rx="0.61801428"
       sodipodi:ry="0.66215813"
       sodipodi:start="0"
       sodipodi:end="6.278438"
       sodipodi:arc-type="slice"
       d="m 90.009356,-38.493458 a 0.61801428,0.66215813 0 0 1 -0.61728,0.662158 0.61801428,0.66215813 0 0 1 -0.618746,-0.660586 0.61801428,0.66215813 0 0 1 0.615812,-0.663726 0.61801428,0.66215813 0 0 1 0.620207,0.659011 l -0.618007,0.0031 z"
       transform="rotate(90)" />
    <path
       style="fill:#1a1a1a;fill-opacity:1;stroke:#552200;stroke-width:0.377953;stroke-miterlimit:4;stroke-dasharray:none;stroke-opacity:1;paint-order:fill markers stroke"
       id="path12537"
       sodipodi:type="arc"
       sodipodi:cx="89.523781"
       sodipodi:cy="-117.68758"
       sodipodi:rx="0.52972651"
       sodipodi:ry="0.52972651"
       sodipodi:start="0"
       sodipodi:end="6.2774675"
       sodipodi:arc-type="slice"
       d="m 90.053507,-117.68758 a 0.52972651,0.52972651 0 0 1 -0.528969,0.52973 0.52972651,0.52972651 0 0 1 -0.530482,-0.52821 0.52972651,0.52972651 0 0 1 0.527453,-0.53124 0.52972651,0.52972651 0 0 1 0.53199,0.52669 l -0.529718,0.003 z"
       transform="rotate(90)" />
    <rect
       style="fill:#552200;fill-opacity:1;stroke:none;stroke-width:0.0754308;stroke-miterlimit:4;stroke-dasharray:none;stroke-opacity:1;paint-order:fill markers stroke"
       id="rect14265"
       width="86.900986"
       height="5.2440243"
       x="35.209881"
       y="156.07217"
       ry="0.020632695" />
    <rect
       style="fill:#1a1a1a;fill-opacity:1;stroke:none;stroke-width:0.1;stroke-miterlimit:4;stroke-dasharray:none;stroke-opacity:1;paint-order:fill markers stroke"
       id="rect14413"
       width="36.992569"
       height="18.452139"
       x="68.069862"
       y="152.73782"
       ry="0.037335355" />
    <path
       style="fill:#1a1a1a;fill-opacity:1;stroke:#552200;stroke-width:0.377953;stroke-miterlimit:4;stroke-dasharray:none;stroke-opacity:1;paint-order:fill markers stroke"
       id="path12537-7"
       sodipodi:type="arc"
       sodipodi:cx="158.63123"
       sodipodi:cy="-120.51893"
       sodipodi:rx="0.52972651"
       sodipodi:ry="0.52972651"
       sodipodi:start="0"
       sodipodi:end="6.2774675"
       sodipodi:arc-type="slice"
       transform="rotate(90)"
       d="m 159.16095,-120.51893 a 0.52972651,0.52972651 0 0 1 -0.52897,0.52973 0.52972651,0.52972651 0 0 1 -0.53048,-0.52821 0.52972651,0.52972651 0 0 1 0.52745,-0.53124 0.52972651,0.52972651 0 0 1 0.53199,0.52669 l -0.52971,0.003 z" />
    <path
       style="fill:#1a1a1a;fill-opacity:1;stroke:#552200;stroke-width:0.377953;stroke-miterlimit:4;stroke-dasharray:none;stroke-opacity:1;paint-order:fill markers stroke"
       id="path12537-6"
       sodipodi:type="arc"
       sodipodi:cx="158.91742"
       sodipodi:cy="-36.109688"
       sodipodi:rx="0.52972651"
       sodipodi:ry="0.52972651"
       sodipodi:start="0"
       sodipodi:end="6.2774675"
       sodipodi:arc-type="slice"
       transform="rotate(90)"
       d="m 159.44715,-36.109688 a 0.52972651,0.52972651 0 0 1 -0.52897,0.529726 0.52972651,0.52972651 0 0 1 -0.53048,-0.528211 0.52972651,0.52972651 0 0 1 0.52745,-0.531236 0.52972651,0.52972651 0 0 1 0.53199,0.526692 l -0.52972,0.003 z" />
    <path
       style="fill:#552200;stroke:none;stroke-width:0.269378px;stroke-linecap:butt;stroke-linejoin:miter;stroke-opacity:1"
       d="m 105.39129,156.1346 -3.36503,0.0624 1.55308,0.74914 -3.81801,0.37458 3.81801,0.81157 -1.87664,2.3723 3.55504,0.8109 z"
       id="path14581" />
    <path
       style="fill:#552200;stroke:none;stroke-width:0.276413px;stroke-linecap:butt;stroke-linejoin:miter;stroke-opacity:1"
       d="m 67.548353,156.09275 4.083227,0.8608 -1.336985,0.80563 0.07227,0.13243 -0.12045,0.14347 0.192719,0.0552 -0.204764,0.0552 c 0,0 0,0 0.14454,0.0883 0.144539,0.0883 -0.01204,0.11036 -0.19272,0.18762 -0.180675,0.0773 -0.505887,-0.0331 -0.180675,0.0883 0.325213,0.1214 3.505073,0.62905 3.505073,0.62905 l -0.493842,0.97117 -4.938418,-0.0883 2.384895,1.08153 -2.898185,0.21507 z"
       id="path14649" />
    <rect
       style="fill:#552200;fill-opacity:1;stroke:none;stroke-width:0.109248;stroke-miterlimit:4;stroke-dasharray:none;stroke-opacity:1;paint-order:fill markers stroke"
       id="rect14852"
       width="86.191246"
       height="4.105896"
       x="75.145454"
       y="85.448341"
       ry="2.052948"
       transform="matrix(0.9325282,0.36109716,-0.35546148,0.93469093,0,0)" />
    <path
       style="fill:#1a1a1a;fill-opacity:1;stroke:#552200;stroke-width:0.377953;stroke-miterlimit:4;stroke-dasharray:none;stroke-opacity:1;paint-order:fill markers stroke"
       id="path12537-64"
       sodipodi:type="arc"
       sodipodi:cx="108.94654"
       sodipodi:cy="-39.641201"
       sodipodi:rx="0.52972651"
       sodipodi:ry="0.52972651"
       sodipodi:start="0"
       sodipodi:end="6.2774675"
       sodipodi:arc-type="slice"
       transform="rotate(90)"
       d="m 109.47627,-39.641201 a 0.52972651,0.52972651 0 0 1 -0.52897,0.529726 0.52972651,0.52972651 0 0 1 -0.53048,-0.528212 0.52972651,0.52972651 0 0 1 0.52745,-0.531236 0.52972651,0.52972651 0 0 1 0.53199,0.526693 l -0.52972,0.003 z" />
    <path
       style="fill:#1a1a1a;fill-opacity:1;stroke:#552200;stroke-width:0.377953;stroke-miterlimit:4;stroke-dasharray:none;stroke-opacity:1;paint-order:fill markers stroke"
       id="path12537-3"
       sodipodi:type="arc"
       sodipodi:cx="139.46556"
       sodipodi:cy="-118.61485"
       sodipodi:rx="0.52972651"
       sodipodi:ry="0.52972651"
       sodipodi:start="0"
       sodipodi:end="6.2774675"
       sodipodi:arc-type="slice"
       transform="rotate(90)"
       d="m 139.99529,-118.61485 a 0.52972651,0.52972651 0 0 1 -0.52897,0.52972 0.52972651,0.52972651 0 0 1 -0.53048,-0.52821 0.52972651,0.52972651 0 0 1 0.52745,-0.53123 0.52972651,0.52972651 0 0 1 0.53199,0.52669 l -0.52972,0.003 z" />
    <rect
       style="fill:#552200;fill-opacity:1;stroke:none;stroke-width:0.109248;stroke-miterlimit:4;stroke-dasharray:none;stroke-opacity:1;paint-order:fill markers stroke"
       id="rect14852-0"
       width="86.191246"
       height="4.105896"
       x="-14.184186"
       y="-145.2726"
       ry="2.052948"
       transform="matrix(0.9325282,-0.36109716,-0.35546148,-0.93469093,0,0)"
       rx="0" />
    <path
       style="fill:#1a1a1a;fill-opacity:1;stroke:#552200;stroke-width:0.377953;stroke-miterlimit:4;stroke-dasharray:none;stroke-opacity:1;paint-order:fill markers stroke"
       id="path12537-3-3"
       sodipodi:type="arc"
       sodipodi:cx="138.47577"
       sodipodi:cy="-38.033855"
       sodipodi:rx="0.52972651"
       sodipodi:ry="0.52972651"
       sodipodi:start="0"
       sodipodi:end="6.2774675"
       sodipodi:arc-type="slice"
       transform="rotate(90)"
       d="m 139.0055,-38.033855 a 0.52972651,0.52972651 0 0 1 -0.52897,0.529726 0.52972651,0.52972651 0 0 1 -0.53049,-0.528212 0.52972651,0.52972651 0 0 1 0.52746,-0.531236 0.52972651,0.52972651 0 0 1 0.53199,0.526693 l -0.52972,0.003 z" />
    <path
       style="fill:#1a1a1a;fill-opacity:1;stroke:#552200;stroke-width:0.377953;stroke-miterlimit:4;stroke-dasharray:none;stroke-opacity:1;paint-order:fill markers stroke"
       id="path12537-3-8"
       sodipodi:type="arc"
       sodipodi:cx="108.67707"
       sodipodi:cy="-116.41666"
       sodipodi:rx="0.52972651"
       sodipodi:ry="0.52972651"
       sodipodi:start="0"
       sodipodi:end="6.2774675"
       sodipodi:arc-type="slice"
       transform="rotate(90)"
       d="m 109.2068,-116.41666 a 0.52972651,0.52972651 0 0 1 -0.52897,0.52973 0.52972651,0.52972651 0 0 1 -0.53048,-0.52821 0.52972651,0.52972651 0 0 1 0.52745,-0.53124 0.52972651,0.52972651 0 0 1 0.53199,0.52669 l -0.52972,0.003 z" />
    <path
       style="fill:#1a1a1a;fill-opacity:1;stroke:#552200;stroke-width:0.377953;stroke-miterlimit:4;stroke-dasharray:none;stroke-opacity:1;paint-order:fill markers stroke"
       id="path12537-64-6"
       sodipodi:type="arc"
       sodipodi:cx="123.85834"
       sodipodi:cy="-77.286934"
       sodipodi:rx="0.52972651"
       sodipodi:ry="0.52972651"
       sodipodi:start="0"
       sodipodi:end="6.2774675"
       sodipodi:arc-type="slice"
       transform="rotate(90)"
       d="m 124.38806,-77.286934 a 0.52972651,0.52972651 0 0 1 -0.52897,0.529726 0.52972651,0.52972651 0 0 1 -0.53048,-0.528211 0.52972651,0.52972651 0 0 1 0.52746,-0.531237 0.52972651,0.52972651 0 0 1 0.53199,0.526693 l -0.52972,0.003 z" />
    <path
       style="fill:none;fill-opacity:1;stroke:#666666;stroke-width:0.178;stroke-miterlimit:4;stroke-dasharray:none;stroke-opacity:1;paint-order:fill markers stroke"
       id="path15887-4"
       sodipodi:type="arc"
       sodipodi:cx="77.357552"
       sodipodi:cy="125.0487"
       sodipodi:rx="0.89296871"
       sodipodi:ry="1.7859374"
       sodipodi:start="0"
       sodipodi:end="6.2824457"
       sodipodi:arc-type="arc"
       sodipodi:open="true"
       d="m 78.25052,125.0487 a 0.89296871,1.7859374 0 0 1 -0.892803,1.78594 0.89296871,1.7859374 0 0 1 -0.893134,-1.78528 0.89296871,1.7859374 0 0 1 0.892473,-1.7866 0.89296871,1.7859374 0 0 1 0.893464,1.78462" />
    <rect
       style="fill:#1a1a1a;fill-opacity:1;stroke:none;stroke-width:0.1;stroke-miterlimit:4;stroke-dasharray:none;stroke-opacity:1;paint-order:fill markers stroke"
       id="rect15004"
       width="20.747622"
       height="9.0936375"
       x="85.197678"
       y="113.09661"
       ry="0" />
    <rect
       style="fill:#1a1a1a;fill-opacity:1;stroke:none;stroke-width:0.1;stroke-miterlimit:4;stroke-dasharray:none;stroke-opacity:1;paint-order:fill markers stroke"
       id="rect15028"
       width="17.216112"
       height="7.6810346"
       x="48.646549"
       y="128.63525" />
    <rect
       style="fill:#1a1a1a;fill-opacity:1;stroke:none;stroke-width:0.1;stroke-miterlimit:4;stroke-dasharray:none;stroke-opacity:1;paint-order:fill markers stroke"
       id="rect15030"
       width="15.715219"
       height="10.947681"
       x="53.678955"
       y="123.2497" />
    <rect
       style="fill:#1a1a1a;fill-opacity:1;stroke:none;stroke-width:0.1;stroke-miterlimit:4;stroke-dasharray:none;stroke-opacity:1;paint-order:fill markers stroke"
       id="rect15032"
       width="2.4720597"
       height="2.3837755"
       x="48.646549"
       y="136.31628" />
    <rect
       style="fill:#1a1a1a;fill-opacity:1;stroke:none;stroke-width:0.1;stroke-miterlimit:4;stroke-dasharray:none;stroke-opacity:1;paint-order:fill markers stroke"
       id="rect15034"
       width="4.6792545"
       height="1.2360318"
       x="85.19767"
       y="122.19025" />
    <rect
       style="fill:#1a1a1a;fill-opacity:1;stroke:none;stroke-width:0.1;stroke-miterlimit:4;stroke-dasharray:none;stroke-opacity:1;paint-order:fill markers stroke"
       id="rect15036"
       width="5.0324078"
       height="6.2684298"
       x="105.94529"
       y="106.82818" />
    <rect
       style="fill:#1a1a1a;fill-opacity:1;stroke:none;stroke-width:0.1;stroke-miterlimit:4;stroke-dasharray:none;stroke-opacity:1;paint-order:fill markers stroke"
       id="rect15038"
       width="12.272014"
       height="8.9170523"
       x="98.529121"
       y="108.1525" />
    <path
       style="fill:none;fill-opacity:1;stroke:url(#radialGradient2291-5);stroke-width:0.264583px;stroke-linecap:butt;stroke-linejoin:miter;stroke-opacity:1"
       d="m 62.827422,97.550386 c 1.942734,-0.539729 3.950038,-0.811422 5.930743,-1.186148 0.377021,-0.07133 0.743374,-0.199004 1.12372,-0.249717 0.474422,-0.06326 0.957241,0 1.435862,0 0.874006,0 1.74801,0 2.622013,0 1.492269,0 2.928025,-0.04366 4.370022,0.437002 0.566479,0.188828 1.10212,0.540853 1.685579,0.686718 0.245602,0.0614 0.500321,0.0782 0.749146,0.12486 0.481052,0.0902 0.948071,0.251169 1.435865,0.312142 0.373967,0.04675 0.752319,0.06082 1.12372,0.124859 0.614418,0.105934 1.179049,0.42314 1.810435,0.374574 0.57232,-0.04403 1.122373,-0.211572 1.685581,-0.312145 0.962925,-0.17195 1.966026,-0.284184 2.871727,-0.686718 0.546425,-0.242856 0.04036,-1.409729 0.312144,-1.560722 0.4674,-0.259667 2.323357,-0.485627 2.934154,-0.374573 0.8704,0.158255 1.8062,0.633383 2.49716,1.186148 0.14988,0.119904 0.18835,0.313209 0.31214,0.437002 0.12917,0.129169 -0.005,-0.197385 0.12486,0.06243 0.0186,0.03723 -0.0294,0.09543 0,0.12486 0.0865,0.08646 1.718103,0.06243 1.810443,0.06243 -0.0736,0.485095 0.11417,0.529806 0.24971,0.936428 0.0149,0.04458 0.0445,0.557531 0,0.624289 -0.24131,0.361968 -0.03,0.04623 -0.18728,0.124857 -0.079,0.03948 -0.10832,0.147803 -0.18729,0.187287 -0.0372,0.01861 -0.0854,-0.01316 -0.12486,0 -0.411953,0.137317 -0.667693,0.124858 -1.123723,0.124858"
       id="path1772-2"
       inkscape:transform-center-x="-12.374893"
       inkscape:transform-center-y="0.31294134" />
    <path
       style="fill:#552200;stroke:none;stroke-width:0.264583px;stroke-linecap:butt;stroke-linejoin:miter;stroke-opacity:1"
       d="m 48.641034,132.55302 0.557315,1.13671 1.418122,-1.13119 -1.313272,1.47624 0.124856,0.078 -0.109249,0.0624 h 0.179483 l -0.210698,0.0858 c 0,0 0.36677,-0.0546 0.17168,0.0234 -0.195091,0.078 -0.756949,0.2263 -0.460412,0.17948 0.296537,-0.0468 0.920824,-0.14827 0.624287,-0.10145 -0.296537,0.0468 -0.913022,0.16388 -0.624287,0.11706 0.288732,-0.0468 0.756949,-0.0624 0.47602,-0.0624 -0.280932,0 -0.374574,-0.0858 -0.296537,0 0.07804,0.0858 -0.288735,0.14046 0.05462,0.0858 0.34336,-0.0546 0.702326,-0.11705 0.358968,-0.0624 -0.34336,0.0546 0.319947,0.0156 0.109249,0.0546 -0.210698,0.039 -0.803772,0.16388 -0.577466,0.12486 0.226303,-0.039 2.645423,-0.29653 2.645423,-0.29653 l -0.319453,0.93332 1.037381,0.44144 -3.796371,1.21395 -0.09372,0.0509 0.01196,-4.40271 z"
       id="path15303" />
    <path
       style="fill:#552200;stroke:none;stroke-width:0.264583px;stroke-linecap:butt;stroke-linejoin:miter;stroke-opacity:1"
       d="m 70.064973,128.47174 -4.018359,1.7694 0.198437,-0.0992 -0.28112,-0.0496 0.314193,-0.23151 h -0.347265 l 0.314192,-0.19844 h -0.644922 l 0.56224,-0.38034 -0.843359,-0.0496 -0.04961,-0.97565 2.563151,-1.70326 -4.24987,1.35599 5.208985,-2.11666 -0.992188,0.0165 0.628386,-0.23151 -1.405599,0.11576 2.778125,-1.32292 z"
       id="path15439" />
    <path
       style="fill:#552200;stroke:none;stroke-width:0.264583px;stroke-linecap:butt;stroke-linejoin:miter;stroke-opacity:1"
       d="m 84.850556,118.67268 2.974573,-1.23075 -0.198437,0.24804 h 0.264583 l -0.479557,0.28112 0.578776,0.0331 -1.008724,0.51263 c 0,0 1.653646,0.0165 1.570963,-0.0165 -0.08268,-0.0331 -3.208073,1.42213 -3.340364,1.43867 -0.132292,0.0165 3.472656,0.3638 3.158463,0.41341 -0.314192,0.0496 -2.926953,0.16537 -2.844271,0.19844 0.08268,0.0331 3.555339,-0.1819 1.885157,0.0827 -1.670183,0.26459 1.620573,0.46302 1.620573,0.46302 l -4.051433,1.73633 z"
       id="path15622" />
    <path
       style="fill:#552200;stroke:none;stroke-width:0.264583px;stroke-linecap:butt;stroke-linejoin:miter;stroke-opacity:1"
       d="m 111.29437,108.41788 -3.39098,1.05237 -0.18709,0.65482 1.42655,-0.49111 c 0,0 -1.61364,1.47332 -1.28623,1.37978 0.3274,-0.0935 2.99342,-0.72497 2.64262,-0.65481 -0.35079,0.0702 -2.64262,1.35639 -2.64262,1.35639 0,0 3.81193,-0.74835 1.82411,-0.30402 -1.98782,0.44434 -4.67722,1.12253 -2.57247,0.79513 2.10475,-0.32741 4.44336,-1.02899 2.5257,-0.39757 -1.91766,0.63143 -2.38538,1.23947 -2.38538,1.23947 l 4.37319,-0.77174 z"
       id="path15740" />
    <path
       style="fill:none;fill-opacity:1;stroke:#666666;stroke-width:0.178;stroke-miterlimit:4;stroke-dasharray:none;stroke-opacity:1;paint-order:fill markers stroke"
       id="path15887"
       sodipodi:type="arc"
       sodipodi:cx="77.324478"
       sodipodi:cy="128.25676"
       sodipodi:rx="0.89296871"
       sodipodi:ry="1.7859374"
       sodipodi:start="0"
       sodipodi:end="6.2824457"
       sodipodi:arc-type="arc"
       d="m 78.217447,128.25676 a 0.89296871,1.7859374 0 0 1 -0.892804,1.78594 0.89296871,1.7859374 0 0 1 -0.893134,-1.78528 0.89296871,1.7859374 0 0 1 0.892474,-1.7866 0.89296871,1.7859374 0 0 1 0.893464,1.78462"
       sodipodi:open="true" />
    <text
       xml:space="preserve"
       style="font-style:normal;font-weight:normal;font-size:4.48828px;line-height:1.25;font-family:sans-serif;fill:#800000;fill-opacity:1;stroke:none;stroke-width:0.112207"
       x="91.0765"
       y="110.53197"
       id="text17522"
       transform="scale(0.76444073,1.3081459)"><tspan
         sodipodi:role="line"
         id="tspan17520"
         style="fill:#800000;stroke-width:0.112207"
         x="91.0765"
         y="110.53197">DANGER</tspan></text>
    <path
       style="fill:#552200;stroke:none;stroke-width:0.264583px;stroke-linecap:butt;stroke-linejoin:miter;stroke-opacity:1"
       d="m 69.593684,140.90716 0.239779,0.12402 -0.256315,0.1819 c 0,0 0.206705,0.0827 0.289388,0.091 0.08268,0.008 -0.173633,-0.0331 -0.405144,0.091 -0.23151,0.12402 0.553972,0.37207 0.553972,0.37207 0,0 0.802018,-0.21498 0.190169,0 -0.611849,0.21497 -0.901237,0.29765 -0.851628,0.33072 0.04961,0.0331 0.42168,0.47129 0.388607,0.48783 -0.03307,0.0165 0.248047,0 0.07441,0.20671 -0.173633,0.2067 -0.223242,0.22324 -0.223242,0.22324 l -0.23151,-0.57878 -0.07441,-0.47956 0.04134,-0.5705 z"
       id="path21701" />
    <path
       style="fill:url(#linearGradient21977);stroke:none;stroke-width:0.264583px;stroke-linecap:butt;stroke-linejoin:miter;stroke-opacity:1;fill-opacity:1"
       d="m 84.961642,140.58544 -0.385871,0.12862 0.432641,0.14032 c 0,0 -0.701582,0.42095 -0.783434,0.44434 -0.08185,0.0234 0.900364,0.29232 0.771742,0.37417 -0.128624,0.0819 -0.876977,0.39757 -0.92375,0.44434 -0.04677,0.0468 0.502801,0.0117 0.152008,0.18709 -0.35079,0.17539 -1.917658,0.35079 -1.777341,0.42095 0.140316,0.0702 1.917658,0.87698 1.917658,0.87698 l 0.514495,1.30962 0.30402,-2.10475 z"
       id="path21837" />
    <rect
       style="fill:#552200;stroke-width:0.378;paint-order:fill markers stroke"
       id="rect948"
       width="15.742708"
       height="3.96875"
       x="35.983334"
       y="192.21979"
       ry="0" />
    <path
       style="fill:#1a1a1a;fill-opacity:1;stroke:#552200;stroke-width:0.377953;stroke-miterlimit:4;stroke-dasharray:none;stroke-opacity:1;paint-order:fill markers stroke"
       id="path12537-3-2"
       sodipodi:type="arc"
       sodipodi:cx="194.08269"
       sodipodi:cy="-35.395119"
       sodipodi:rx="0.52972651"
       sodipodi:ry="0.52972651"
       sodipodi:start="0"
       sodipodi:end="6.2774675"
       sodipodi:arc-type="slice"
       transform="rotate(90)"
       d="m 194.61241,-35.395119 a 0.52972651,0.52972651 0 0 1 -0.52897,0.529726 0.52972651,0.52972651 0 0 1 -0.53048,-0.528211 0.52972651,0.52972651 0 0 1 0.52746,-0.531236 0.52972651,0.52972651 0 0 1 0.53199,0.526692 l -0.52972,0.003 z" />
    <rect
       style="fill:#552200;stroke-width:0.312123;paint-order:fill markers stroke"
       id="rect950"
       width="28.045834"
       height="5.953125"
       x="91.810417"
       y="174.49271"
       ry="0.025455924" />
    <path
       style="fill:#1a1a1a;fill-opacity:1;stroke:#552200;stroke-width:0.377953;stroke-miterlimit:4;stroke-dasharray:none;stroke-opacity:1;paint-order:fill markers stroke"
       id="path12537-3-7"
       sodipodi:type="arc"
       sodipodi:cx="177.27031"
       sodipodi:cy="-120.12083"
       sodipodi:rx="0.52972651"
       sodipodi:ry="0.52972651"
       sodipodi:start="0"
       sodipodi:end="6.2774675"
       sodipodi:arc-type="slice"
       transform="rotate(90)"
       d="m 177.80004,-120.12083 a 0.52972651,0.52972651 0 0 1 -0.52897,0.52973 0.52972651,0.52972651 0 0 1 -0.53048,-0.52821 0.52972651,0.52972651 0 0 1 0.52745,-0.53124 0.52972651,0.52972651 0 0 1 0.53199,0.52669 l -0.52972,0.003 z" />
    <path
       style="fill:#552200;stroke:none;stroke-width:0.264583px;stroke-linecap:butt;stroke-linejoin:miter;stroke-opacity:1"
       d="m 51.726044,192.21978 3.034437,0.28113 c 0,0 -0.719336,0.37207 -0.677995,0.37207 0.04134,0 0.876433,0 0.876433,0 0,0 -1.132748,0.27285 -0.835092,0.30592 0.297657,0.0331 0.868164,0.0331 0.79375,0.0331 -0.07441,0 -3.067513,0.19017 -1.653645,0.25631 1.413867,0.0661 2.257226,0.0661 2.257226,0.0661 0,0 -2.232422,0.78548 -2.389518,0.93431 -0.157096,0.14883 1.480013,0.55397 1.480013,0.55397 l -3.075781,1.16582 v -3.95221 l 0.190172,-0.0165"
       id="path1087" />
    <path
       style="fill:#552200;stroke:none;stroke-width:0.264583px;stroke-linecap:butt;stroke-linejoin:miter;stroke-opacity:1"
       d="m 92.03593,174.56542 -0.912055,0.11693 0.280633,0.18709 -2.864798,0.38587 3.098658,-0.10524 c 0,0 -1.952739,0.45603 -1.870888,0.46772 0.08185,0.0117 1.53179,0.0117 1.53179,0.0117 l -5.741284,1.44994 5.413878,-0.30402 -1.157611,0.64311 1.099146,-0.0234 c 0,0 -1.637025,0.54958 -1.57856,0.5145 0.05846,-0.0351 1.69549,0.29233 1.69549,0.29233 0,0 -3.905475,1.43824 -2.443845,1.23946 1.461629,-0.19878 3.274052,-0.19878 3.168814,-0.19878 -0.105239,0 -3.145428,0.73666 -3.145428,0.73666 l 2.022896,0.36248 1.543481,0.0702 z"
       id="path1155" />
  </g>
</svg>
